<?xml version="1.0" encoding="UTF-8"?>
<svg version="1.1" xmlns="http://www.w3.org/2000/svg" width="512" height="512">
<path d="M0 0 C31.68 0 63.36 0 96 0 C96 5.28 96 10.56 96 16 C101.28 16 106.56 16 112 16 C112 21.28 112 26.56 112 32 C117.28 32 122.56 32 128 32 C128 37.28 128 42.56 128 48 C133.28 48 138.56 48 144 48 C144 58.56 144 69.12 144 80 C149.28 80 154.56 80 160 80 C160 74.72 160 69.44 160 64 C165.28 64 170.56 64 176 64 C176 58.72 176 53.44 176 48 C207.68 48 239.36 48 272 48 C272 69.12 272 90.24 272 112 C266.72 112 261.44 112 256 112 C256 117.28 256 122.56 256 128 C250.72 128 245.44 128 240 128 C240 133.28 240 138.56 240 144 C234.72 144 229.44 144 224 144 C224 149.28 224 154.56 224 160 C197.6 160 171.2 160 144 160 C144 175.84 144 191.68 144 208 C149.28 208 154.56 208 160 208 C160 213.28 160 218.56 160 224 C165.28 224 170.56 224 176 224 C176 229.28 176 234.56 176 240 C181.28 240 186.56 240 192 240 C192 245.28 192 250.56 192 256 C197.28 256 202.56 256 208 256 C208 261.28 208 266.56 208 272 C218.56 272 229.12 272 240 272 C240 266.72 240 261.44 240 256 C250.56 256 261.12 256 272 256 C272 250.72 272 245.44 272 240 C282.56 240 293.12 240 304 240 C304 245.28 304 250.56 304 256 C309.28 256 314.56 256 320 256 C320 266.56 320 277.12 320 288 C314.72 288 309.44 288 304 288 C304 293.28 304 298.56 304 304 C293.44 304 282.88 304 272 304 C272 309.28 272 314.56 272 320 C261.44 320 250.88 320 240 320 C240 325.28 240 330.56 240 336 C229.44 336 218.88 336 208 336 C208 341.28 208 346.56 208 352 C197.44 352 186.88 352 176 352 C176 357.28 176 362.56 176 368 C133.76 368 91.52 368 48 368 C48 373.28 48 378.56 48 384 C42.72 384 37.44 384 32 384 C32 389.28 32 394.56 32 400 C26.72 400 21.44 400 16 400 C16 405.28 16 410.56 16 416 C10.72 416 5.44 416 0 416 C0 421.28 0 426.56 0 432 C-5.28 432 -10.56 432 -16 432 C-16 421.44 -16 410.88 -16 400 C-21.28 400 -26.56 400 -32 400 C-32 389.44 -32 378.88 -32 368 C-37.28 368 -42.56 368 -48 368 C-48 357.44 -48 346.88 -48 336 C-53.28 336 -58.56 336 -64 336 C-64 330.72 -64 325.44 -64 320 C-58.72 320 -53.44 320 -48 320 C-48 314.72 -48 309.44 -48 304 C-42.72 304 -37.44 304 -32 304 C-32 298.72 -32 293.44 -32 288 C-26.72 288 -21.44 288 -16 288 C-16 282.72 -16 277.44 -16 272 C-10.72 272 -5.44 272 0 272 C0 266.72 0 261.44 0 256 C26.4 256 52.8 256 80 256 C80 250.72 80 245.44 80 240 C85.28 240 90.56 240 96 240 C96 234.72 96 229.44 96 224 C101.28 224 106.56 224 112 224 C112 218.72 112 213.44 112 208 C117.28 208 122.56 208 128 208 C128 176.32 128 144.64 128 112 C101.6 112 75.2 112 48 112 C48 106.72 48 101.44 48 96 C42.72 96 37.44 96 32 96 C32 90.72 32 85.44 32 80 C26.72 80 21.44 80 16 80 C16 74.72 16 69.44 16 64 C10.72 64 5.44 64 0 64 C0 42.88 0 21.76 0 0 Z " fill="#FED3A6" transform="translate(128,32)"/>
<path d="M0 0 C31.68 0 63.36 0 96 0 C96 5.28 96 10.56 96 16 C101.28 16 106.56 16 112 16 C112 21.28 112 26.56 112 32 C117.28 32 122.56 32 128 32 C128 37.28 128 42.56 128 48 C133.28 48 138.56 48 144 48 C144 58.56 144 69.12 144 80 C149.28 80 154.56 80 160 80 C160 74.72 160 69.44 160 64 C165.28 64 170.56 64 176 64 C176 58.72 176 53.44 176 48 C207.68 48 239.36 48 272 48 C272 69.12 272 90.24 272 112 C266.72 112 261.44 112 256 112 C256 117.28 256 122.56 256 128 C250.72 128 245.44 128 240 128 C240 133.28 240 138.56 240 144 C234.72 144 229.44 144 224 144 C224 149.28 224 154.56 224 160 C197.6 160 171.2 160 144 160 C144 175.84 144 191.68 144 208 C138.72 208 133.44 208 128 208 C128 176.32 128 144.64 128 112 C101.6 112 75.2 112 48 112 C48 106.72 48 101.44 48 96 C42.72 96 37.44 96 32 96 C32 90.72 32 85.44 32 80 C26.72 80 21.44 80 16 80 C16 74.72 16 69.44 16 64 C10.72 64 5.44 64 0 64 C0 42.88 0 21.76 0 0 Z " fill="#4F8F82" transform="translate(128,32)"/>
<path d="M0 0 C15.84 0 31.68 0 48 0 C48 5.28 48 10.56 48 16 C53.28 16 58.56 16 64 16 C64 21.28 64 26.56 64 32 C69.28 32 74.56 32 80 32 C80 37.28 80 42.56 80 48 C85.28 48 90.56 48 96 48 C96 53.28 96 58.56 96 64 C106.56 64 117.12 64 128 64 C128 58.72 128 53.44 128 48 C138.56 48 149.12 48 160 48 C160 42.72 160 37.44 160 32 C170.56 32 181.12 32 192 32 C192 37.28 192 42.56 192 48 C197.28 48 202.56 48 208 48 C208 58.56 208 69.12 208 80 C202.72 80 197.44 80 192 80 C192 85.28 192 90.56 192 96 C181.44 96 170.88 96 160 96 C160 101.28 160 106.56 160 112 C149.44 112 138.88 112 128 112 C128 117.28 128 122.56 128 128 C117.44 128 106.88 128 96 128 C96 117.44 96 106.88 96 96 C74.88 96 53.76 96 32 96 C32 85.44 32 74.88 32 64 C-15.52 64 -63.04 64 -112 64 C-112 58.72 -112 53.44 -112 48 C-85.6 48 -59.2 48 -32 48 C-32 42.72 -32 37.44 -32 32 C-26.72 32 -21.44 32 -16 32 C-16 26.72 -16 21.44 -16 16 C-10.72 16 -5.44 16 0 16 C0 10.72 0 5.44 0 0 Z " fill="#B97460" transform="translate(240,240)"/>
<path d="M0 0 C31.68 0 63.36 0 96 0 C96 5.28 96 10.56 96 16 C101.28 16 106.56 16 112 16 C112 37.12 112 58.24 112 80 C101.44 80 90.88 80 80 80 C80 74.72 80 69.44 80 64 C64.16 64 48.32 64 32 64 C32 58.72 32 53.44 32 48 C26.72 48 21.44 48 16 48 C16 42.72 16 37.44 16 32 C10.72 32 5.44 32 0 32 C0 21.44 0 10.88 0 0 Z " fill="#B6DFBB" transform="translate(144,48)"/>
<path d="M0 0 C31.68 0 63.36 0 96 0 C96 10.56 96 21.12 96 32 C90.72 32 85.44 32 80 32 C80 37.28 80 42.56 80 48 C74.72 48 69.44 48 64 48 C64 53.28 64 58.56 64 64 C48.16 64 32.32 64 16 64 C16 69.28 16 74.56 16 80 C5.44 80 -5.12 80 -16 80 C-16 64.16 -16 48.32 -16 32 C-10.72 32 -5.44 32 0 32 C0 21.44 0 10.88 0 0 Z " fill="#B6DFBB" transform="translate(288,96)"/>
<path d="M0 0 C10.56 0 21.12 0 32 0 C32 5.28 32 10.56 32 16 C37.28 16 42.56 16 48 16 C48 26.56 48 37.12 48 48 C42.72 48 37.44 48 32 48 C32 53.28 32 58.56 32 64 C21.44 64 10.88 64 0 64 C0 69.28 0 74.56 0 80 C-10.56 80 -21.12 80 -32 80 C-32 85.28 -32 90.56 -32 96 C-42.56 96 -53.12 96 -64 96 C-64 80.16 -64 64.32 -64 48 C-53.44 48 -42.88 48 -32 48 C-32 37.44 -32 26.88 -32 16 C-21.44 16 -10.88 16 0 16 C0 10.72 0 5.44 0 0 Z " fill="#FDAC83" transform="translate(400,272)"/>
<path d="M0 0 C52.8 0 105.6 0 160 0 C160 5.28 160 10.56 160 16 C149.44 16 138.88 16 128 16 C128 21.28 128 26.56 128 32 C85.76 32 43.52 32 0 32 C0 21.44 0 10.88 0 0 Z " fill="#FDAC83" transform="translate(176,368)"/>
<path d="M0 0 C15.84 0 31.68 0 48 0 C48 5.28 48 10.56 48 16 C53.28 16 58.56 16 64 16 C64 21.28 64 26.56 64 32 C69.28 32 74.56 32 80 32 C80 42.56 80 53.12 80 64 C69.44 64 58.88 64 48 64 C48 58.72 48 53.44 48 48 C26.88 48 5.76 48 -16 48 C-16 37.44 -16 26.88 -16 16 C-10.72 16 -5.44 16 0 16 C0 10.72 0 5.44 0 0 Z " fill="#C7B19A" transform="translate(240,240)"/>
<path d="M0 0 C31.68 0 63.36 0 96 0 C96 21.12 96 42.24 96 64 C90.72 64 85.44 64 80 64 C80 69.28 80 74.56 80 80 C74.72 80 69.44 80 64 80 C64 85.28 64 90.56 64 96 C42.88 96 21.76 96 0 96 C0 90.72 0 85.44 0 80 C15.84 80 31.68 80 48 80 C48 74.72 48 69.44 48 64 C53.28 64 58.56 64 64 64 C64 58.72 64 53.44 64 48 C69.28 48 74.56 48 80 48 C80 37.44 80 26.88 80 16 C53.6 16 27.2 16 0 16 C0 10.72 0 5.44 0 0 Z " fill="#4F8F82" transform="translate(304,80)"/>
<path d="M0 0 C31.68 0 63.36 0 96 0 C96 5.28 96 10.56 96 16 C69.6 16 43.2 16 16 16 C16 26.56 16 37.12 16 48 C21.28 48 26.56 48 32 48 C32 53.28 32 58.56 32 64 C37.28 64 42.56 64 48 64 C48 69.28 48 74.56 48 80 C63.84 80 79.68 80 96 80 C96 85.28 96 90.56 96 96 C74.88 96 53.76 96 32 96 C32 90.72 32 85.44 32 80 C26.72 80 21.44 80 16 80 C16 74.72 16 69.44 16 64 C10.72 64 5.44 64 0 64 C0 42.88 0 21.76 0 0 Z " fill="#4F8F82" transform="translate(128,32)"/>
<path d="M0 0 C42.24 0 84.48 0 128 0 C128 5.28 128 10.56 128 16 C85.76 16 43.52 16 0 16 C0 10.72 0 5.44 0 0 Z " fill="#B97460" transform="translate(176,384)"/>
<path d="M0 0 C10.56 0 21.12 0 32 0 C32 5.28 32 10.56 32 16 C37.28 16 42.56 16 48 16 C48 26.56 48 37.12 48 48 C42.72 48 37.44 48 32 48 C32 42.72 32 37.44 32 32 C10.88 32 -10.24 32 -32 32 C-32 26.72 -32 21.44 -32 16 C-21.44 16 -10.88 16 0 16 C0 10.72 0 5.44 0 0 Z " fill="#FED3A6" transform="translate(400,272)"/>
<path d="M0 0 C31.68 0 63.36 0 96 0 C96 5.28 96 10.56 96 16 C64.32 16 32.64 16 0 16 C0 10.72 0 5.44 0 0 Z " fill="#B97460" transform="translate(176,336)"/>
<path d="M0 0 C21.12 0 42.24 0 64 0 C64 10.56 64 21.12 64 32 C53.44 32 42.88 32 32 32 C32 26.72 32 21.44 32 16 C21.44 16 10.88 16 0 16 C0 10.72 0 5.44 0 0 Z " fill="#FDAC83" transform="translate(368,304)"/>
<path d="M0 0 C5.28 0 10.56 0 16 0 C16 5.28 16 10.56 16 16 C26.56 16 37.12 16 48 16 C48 21.28 48 26.56 48 32 C21.6 32 -4.8 32 -32 32 C-32 26.72 -32 21.44 -32 16 C-21.44 16 -10.88 16 0 16 C0 10.72 0 5.44 0 0 Z " fill="#997D77" transform="translate(320,288)"/>
<path d="M0 0 C15.84 0 31.68 0 48 0 C48 5.28 48 10.56 48 16 C37.44 16 26.88 16 16 16 C16 21.28 16 26.56 16 32 C10.72 32 5.44 32 0 32 C0 21.44 0 10.88 0 0 Z " fill="#DFD3C4" transform="translate(224,256)"/>
<path d="M0 0 C15.84 0 31.68 0 48 0 C48 5.28 48 10.56 48 16 C37.44 16 26.88 16 16 16 C16 21.28 16 26.56 16 32 C10.72 32 5.44 32 0 32 C0 21.44 0 10.88 0 0 Z " fill="#FFFFFF" transform="translate(288,96)"/>
<path d="M0 0 C5.28 0 10.56 0 16 0 C16 10.56 16 21.12 16 32 C5.44 32 -5.12 32 -16 32 C-16 26.72 -16 21.44 -16 16 C-10.72 16 -5.44 16 0 16 C0 10.72 0 5.44 0 0 Z " fill="#FED09E" transform="translate(80,336)"/>
<path d="M0 0 C15.84 0 31.68 0 48 0 C48 5.28 48 10.56 48 16 C32.16 16 16.32 16 0 16 C0 10.72 0 5.44 0 0 Z " fill="#997D77" transform="translate(240,240)"/>
<path d="M0 0 C15.84 0 31.68 0 48 0 C48 5.28 48 10.56 48 16 C32.16 16 16.32 16 0 16 C0 10.72 0 5.44 0 0 Z " fill="#7AB393" transform="translate(304,160)"/>
<path d="M0 0 C10.56 0 21.12 0 32 0 C32 5.28 32 10.56 32 16 C26.72 16 21.44 16 16 16 C16 21.28 16 26.56 16 32 C10.72 32 5.44 32 0 32 C0 21.44 0 10.88 0 0 Z " fill="#4F8F82" transform="translate(352,144)"/>
<path d="M0 0 C15.84 0 31.68 0 48 0 C48 5.28 48 10.56 48 16 C32.16 16 16.32 16 0 16 C0 10.72 0 5.44 0 0 Z " fill="#7AB393" transform="translate(176,112)"/>
<path d="M0 0 C10.56 0 21.12 0 32 0 C32 5.28 32 10.56 32 16 C21.44 16 10.88 16 0 16 C0 10.72 0 5.44 0 0 Z " fill="#B97460" transform="translate(304,368)"/>
<path d="M0 0 C10.56 0 21.12 0 32 0 C32 5.28 32 10.56 32 16 C21.44 16 10.88 16 0 16 C0 10.72 0 5.44 0 0 Z " fill="#B97460" transform="translate(336,352)"/>
<path d="M0 0 C10.56 0 21.12 0 32 0 C32 5.28 32 10.56 32 16 C21.44 16 10.88 16 0 16 C0 10.72 0 5.44 0 0 Z " fill="#FDAC83" transform="translate(304,352)"/>
<path d="M0 0 C10.56 0 21.12 0 32 0 C32 5.28 32 10.56 32 16 C21.44 16 10.88 16 0 16 C0 10.72 0 5.44 0 0 Z " fill="#B97460" transform="translate(368,336)"/>
<path d="M0 0 C10.56 0 21.12 0 32 0 C32 5.28 32 10.56 32 16 C21.44 16 10.88 16 0 16 C0 10.72 0 5.44 0 0 Z " fill="#FDAC83" transform="translate(336,336)"/>
<path d="M0 0 C10.56 0 21.12 0 32 0 C32 5.28 32 10.56 32 16 C21.44 16 10.88 16 0 16 C0 10.72 0 5.44 0 0 Z " fill="#B97460" transform="translate(400,320)"/>
<path d="M0 0 C10.56 0 21.12 0 32 0 C32 5.28 32 10.56 32 16 C21.44 16 10.88 16 0 16 C0 10.72 0 5.44 0 0 Z " fill="#FED3A6" transform="translate(336,320)"/>
<path d="M0 0 C10.56 0 21.12 0 32 0 C32 5.28 32 10.56 32 16 C21.44 16 10.88 16 0 16 C0 10.72 0 5.44 0 0 Z " fill="#FED3A6" transform="translate(368,304)"/>
<path d="M0 0 C10.56 0 21.12 0 32 0 C32 5.28 32 10.56 32 16 C21.44 16 10.88 16 0 16 C0 10.72 0 5.44 0 0 Z " fill="#B97460" transform="translate(336,304)"/>
<path d="M0 0 C5.28 0 10.56 0 16 0 C16 10.56 16 21.12 16 32 C10.72 32 5.44 32 0 32 C0 21.44 0 10.88 0 0 Z " fill="#B97460" transform="translate(432,288)"/>
<path d="M0 0 C10.56 0 21.12 0 32 0 C32 5.28 32 10.56 32 16 C21.44 16 10.88 16 0 16 C0 10.72 0 5.44 0 0 Z " fill="#B97460" transform="translate(368,288)"/>
<path d="M0 0 C10.56 0 21.12 0 32 0 C32 5.28 32 10.56 32 16 C21.44 16 10.88 16 0 16 C0 10.72 0 5.44 0 0 Z " fill="#B97460" transform="translate(400,272)"/>
<path d="M0 0 C10.56 0 21.12 0 32 0 C32 5.28 32 10.56 32 16 C21.44 16 10.88 16 0 16 C0 10.72 0 5.44 0 0 Z " fill="#FFFFFF" transform="translate(176,48)"/>
<path d="M0 0 C5.28 0 10.56 0 16 0 C16 5.28 16 10.56 16 16 C10.72 16 5.44 16 0 16 C0 10.72 0 5.44 0 0 Z " fill="#B97460" transform="translate(112,448)"/>
<path d="M0 0 C5.28 0 10.56 0 16 0 C16 5.28 16 10.56 16 16 C10.72 16 5.44 16 0 16 C0 10.72 0 5.44 0 0 Z " fill="#B97460" transform="translate(128,432)"/>
<path d="M0 0 C5.28 0 10.56 0 16 0 C16 5.28 16 10.56 16 16 C10.72 16 5.44 16 0 16 C0 10.72 0 5.44 0 0 Z " fill="#FDAC83" transform="translate(112,432)"/>
<path d="M0 0 C5.28 0 10.56 0 16 0 C16 5.28 16 10.56 16 16 C10.72 16 5.44 16 0 16 C0 10.72 0 5.44 0 0 Z " fill="#B97460" transform="translate(144,416)"/>
<path d="M0 0 C5.28 0 10.56 0 16 0 C16 5.28 16 10.56 16 16 C10.72 16 5.44 16 0 16 C0 10.72 0 5.44 0 0 Z " fill="#FDAC83" transform="translate(128,416)"/>
<path d="M0 0 C5.28 0 10.56 0 16 0 C16 5.28 16 10.56 16 16 C10.72 16 5.44 16 0 16 C0 10.72 0 5.44 0 0 Z " fill="#B97460" transform="translate(160,400)"/>
<path d="M0 0 C5.28 0 10.56 0 16 0 C16 5.28 16 10.56 16 16 C10.72 16 5.44 16 0 16 C0 10.72 0 5.44 0 0 Z " fill="#FDAC83" transform="translate(144,400)"/>
<path d="M0 0 C5.28 0 10.56 0 16 0 C16 5.28 16 10.56 16 16 C10.72 16 5.44 16 0 16 C0 10.72 0 5.44 0 0 Z " fill="#FDAC83" transform="translate(160,384)"/>
<path d="M0 0 C5.28 0 10.56 0 16 0 C16 5.28 16 10.56 16 16 C10.72 16 5.44 16 0 16 C0 10.72 0 5.44 0 0 Z " fill="#B97460" transform="translate(64,352)"/>
<path d="M0 0 C5.28 0 10.56 0 16 0 C16 5.28 16 10.56 16 16 C10.72 16 5.44 16 0 16 C0 10.72 0 5.44 0 0 Z " fill="#B97460" transform="translate(80,336)"/>
<path d="M0 0 C5.28 0 10.56 0 16 0 C16 5.28 16 10.56 16 16 C10.72 16 5.44 16 0 16 C0 10.72 0 5.44 0 0 Z " fill="#B97460" transform="translate(96,320)"/>
<path d="M0 0 C5.28 0 10.56 0 16 0 C16 5.28 16 10.56 16 16 C10.72 16 5.44 16 0 16 C0 10.72 0 5.44 0 0 Z " fill="#B97460" transform="translate(112,304)"/>
<path d="M0 0 C5.28 0 10.56 0 16 0 C16 5.28 16 10.56 16 16 C10.72 16 5.44 16 0 16 C0 10.72 0 5.44 0 0 Z " fill="#997D77" transform="translate(272,288)"/>
<path d="M0 0 C5.28 0 10.56 0 16 0 C16 5.28 16 10.56 16 16 C10.72 16 5.44 16 0 16 C0 10.72 0 5.44 0 0 Z " fill="#997D77" transform="translate(304,272)"/>
<path d="M0 0 C5.28 0 10.56 0 16 0 C16 5.28 16 10.56 16 16 C10.72 16 5.44 16 0 16 C0 10.72 0 5.44 0 0 Z " fill="#DFD3C4" transform="translate(224,272)"/>
<path d="M0 0 C5.28 0 10.56 0 16 0 C16 5.28 16 10.56 16 16 C10.72 16 5.44 16 0 16 C0 10.72 0 5.44 0 0 Z " fill="#997D77" transform="translate(208,272)"/>
<path d="M0 0 C5.28 0 10.56 0 16 0 C16 5.28 16 10.56 16 16 C10.72 16 5.44 16 0 16 C0 10.72 0 5.44 0 0 Z " fill="#997D77" transform="translate(288,256)"/>
<path d="M0 0 C5.28 0 10.56 0 16 0 C16 5.28 16 10.56 16 16 C10.72 16 5.44 16 0 16 C0 10.72 0 5.44 0 0 Z " fill="#997D77" transform="translate(224,256)"/>
<path d="M0 0 C5.28 0 10.56 0 16 0 C16 5.28 16 10.56 16 16 C10.72 16 5.44 16 0 16 C0 10.72 0 5.44 0 0 Z " fill="#4F8F82" transform="translate(352,160)"/>
<path d="M0 0 C5.28 0 10.56 0 16 0 C16 5.28 16 10.56 16 16 C10.72 16 5.44 16 0 16 C0 10.72 0 5.44 0 0 Z " fill="#7AB393" transform="translate(352,144)"/>
<path d="M0 0 C5.28 0 10.56 0 16 0 C16 5.28 16 10.56 16 16 C10.72 16 5.44 16 0 16 C0 10.72 0 5.44 0 0 Z " fill="#7AB393" transform="translate(368,128)"/>
<path d="M0 0 C5.28 0 10.56 0 16 0 C16 5.28 16 10.56 16 16 C10.72 16 5.44 16 0 16 C0 10.72 0 5.44 0 0 Z " fill="#FFFFFF" transform="translate(288,112)"/>
<path d="M0 0 C5.28 0 10.56 0 16 0 C16 5.28 16 10.56 16 16 C10.72 16 5.44 16 0 16 C0 10.72 0 5.44 0 0 Z " fill="#4F8F82" transform="translate(288,96)"/>
<path d="M0 0 C5.28 0 10.56 0 16 0 C16 5.28 16 10.56 16 16 C10.72 16 5.44 16 0 16 C0 10.72 0 5.44 0 0 Z " fill="#7AB393" transform="translate(160,96)"/>
<path d="M0 0 C5.28 0 10.56 0 16 0 C16 5.28 16 10.56 16 16 C10.72 16 5.44 16 0 16 C0 10.72 0 5.44 0 0 Z " fill="#7AB393" transform="translate(144,80)"/>
<path d="M0 0 C5.28 0 10.56 0 16 0 C16 5.28 16 10.56 16 16 C10.72 16 5.44 16 0 16 C0 10.72 0 5.44 0 0 Z " fill="#4F8F82" transform="translate(240,64)"/>
<path d="M0 0 C5.28 0 10.56 0 16 0 C16 5.28 16 10.56 16 16 C10.72 16 5.44 16 0 16 C0 10.72 0 5.44 0 0 Z " fill="#4F8F82" transform="translate(224,48)"/>
<path d="M0 0 C5.28 0 10.56 0 16 0 C16 5.28 16 10.56 16 16 C10.72 16 5.44 16 0 16 C0 10.72 0 5.44 0 0 Z " fill="#FFFFFF" transform="translate(144,48)"/>
</svg>
